<svg xmlns="http://www.w3.org/2000/svg" width="600" height="454.974" viewBox="0 0 600 454.974"><path fill="#b7b9ba" d="M171.082 423.933H152.54l9.27-17.772 9.27-17.772 9.271 17.772 9.271 17.772z"/><path fill="#83755b" d="M405.634 322.071H384.2l-10.717 18.562 10.717 18.563h21.434l10.717-18.563z"/><circle cx="171.082" cy="115.632" r="18.318" fill="#e2007a"/><path fill="#4b4f71" d="M267.883 35.212h35.146v35.146h-35.146z"/><path fill="#ee8201" d="M442.573 96.271l72.974 36.04h-72.974z"/><path d="M370.17 339.739l-83.56-.68v-64.152H284.3v64.134l-112.065-.911v-91.145h-2.308v91.126l-83.685-.68-.018 2.308 83.703.68v44.173h2.308v-44.154l112.065.911v43.243h2.309v-43.224l83.542.68.018-2.309zm23.593-64.832v44.008h2.309v-44.008h-2.309zm-200.49-158.121H284.3v61.097h2.309v-61.097h107.153v61.097h2.309v-61.097h41.735v-2.308h-41.735V42.062h-2.309v72.416H286.61V76.613H284.3v37.865h-91.028v2.308zm-21.037 19.695h-2.308v41.402h2.308V136.48zM33.809 211.407c-2.698-1.619-6.436-3.1-11.21-4.444-4.777-1.345-8.158-2.828-10.147-4.45-1.986-1.62-2.98-3.605-2.98-5.951 0-2.927 1.046-5.212 3.138-6.86s5.007-2.472 8.745-2.472c4.026 0 7.143.996 9.355 2.99 2.211 1.994 3.316 4.734 3.316 8.22h7.617c0-3.184-.848-6.119-2.545-8.802-1.698-2.685-4.092-4.79-7.185-6.317-3.092-1.525-6.611-2.289-10.558-2.289-5.79 0-10.494 1.481-14.112 4.44-3.618 2.962-5.428 6.705-5.428 11.232 0 4 1.48 7.36 4.44 10.084 2.963 2.724 7.692 5.02 14.191 6.888 5.185 1.5 8.765 3.02 10.737 4.559 1.975 1.54 2.96 3.717 2.96 6.533 0 2.817-1.064 5.04-3.197 6.671-2.132 1.632-5.198 2.447-9.197 2.447-4.29 0-7.716-1.006-10.282-3.02-2.567-2.012-3.85-4.756-3.85-8.23H0c0 3.342.926 6.33 2.782 8.961 1.855 2.632 4.492 4.704 7.914 6.217 3.422 1.513 7.106 2.27 11.053 2.27 6.08 0 10.933-1.402 14.565-4.204 3.631-2.803 5.448-6.533 5.448-11.191 0-2.92-.651-5.46-1.954-7.618-1.303-2.158-3.303-4.046-5.999-5.664zm63.588 12.848h24.08l5.487 15.04h7.775l-21.986-57.473h-6.632l-21.947 57.472h7.815l5.408-15.039zm12.04-33.078l9.79 26.881h-19.54l9.75-26.88zm45.315 48.906c5.498 0 9.67-1.67 12.511-5.012l.158 4.223h6.947v-42.71h-7.301v31.066c-1.842 4.158-5.552 6.236-11.132 6.236-5.263 0-7.894-3.237-7.894-9.71v-27.592h-7.304v27.79c.027 5.184 1.231 9.097 3.614 11.743 2.38 2.644 5.847 3.966 10.401 3.966zm30.71-61.42v60.631h6.71l.357-4.934c2.946 3.816 7.116 5.723 12.513 5.723 5.052 0 9.078-1.979 12.078-5.94 3-3.96 4.5-9.204 4.5-15.73v-.631c0-6.816-1.481-12.184-4.441-16.106-2.96-3.92-7.033-5.88-12.216-5.88-5.185 0-9.251 1.828-12.198 5.486v-22.618h-7.303zm17.684 23.329c3.605 0 6.368 1.356 8.29 4.066 1.92 2.71 2.882 6.553 2.882 11.527 0 5.446-.974 9.526-2.921 12.236-1.948 2.71-4.671 4.065-8.172 4.065-4.736 0-8.223-2.236-10.46-6.71v-18.473c2.106-4.474 5.566-6.711 10.381-6.711zm32.013-12.591c1.42 0 2.5-.396 3.235-1.185.737-.789 1.106-1.776 1.106-2.96s-.37-2.184-1.106-3c-.735-.816-1.815-1.224-3.235-1.224-1.423 0-2.496.408-3.217 1.224-.726.816-1.087 1.816-1.087 3s.361 2.171 1.087 2.96c.721.79 1.794 1.185 3.217 1.185zm3.59 7.183h-7.3v42.71h7.3v-42.71zm37.974 14.448v28.262h7.303v-28.223c-.079-10.184-4.632-15.276-13.658-15.276-5.264 0-9.527 2.053-12.788 6.158l-.237-5.369h-6.91v42.71h7.304v-30.433c.999-2.053 2.394-3.71 4.184-4.974 1.79-1.263 3.869-1.895 6.238-1.895 2.919 0 5.072.737 6.454 2.21 1.38 1.475 2.085 3.75 2.11 6.83zm-29.049 59.161c1.427-.814 2.532-1.972 3.319-3.474.784-1.501 1.179-3.223 1.179-5.162v-2c0-1.927-.397-3.649-1.186-5.16-.791-1.51-1.894-2.673-3.305-3.483-1.413-.81-3.01-1.215-4.788-1.215h-6.07v21.718h5.935c1.85 0 3.487-.408 4.916-1.224zm-9.019-18.942h4.267c2.228.009 4.022.766 5.386 2.268 1.361 1.503 2.042 3.503 2.042 6v1.912c0 2.588-.69 4.641-2.071 6.159-1.385 1.517-3.22 2.276-5.505 2.276h-4.119v-18.615zm23.713 3.728c-1.394 0-2.638.345-3.738 1.037-1.098.69-1.948 1.657-2.55 2.901-.601 1.243-.901 2.64-.901 4.191v.359c0 2.486.667 4.483 2.006 5.99 1.337 1.505 3.075 2.258 5.212 2.258 1.402 0 2.65-.338 3.744-1.015 1.093-.676 1.941-1.636 2.543-2.885.602-1.249.904-2.653.904-4.213v-.374c0-2.487-.667-4.482-2-5.99-1.332-1.506-3.072-2.259-5.22-2.259zm5.444 8.472c0 2.029-.499 3.663-1.5 4.9-.998 1.238-2.303 1.858-3.915 1.858-1.62 0-2.93-.62-3.93-1.858-1-1.237-1.498-2.822-1.498-4.75v-.328c0-2.018.5-3.652 1.505-4.901 1.004-1.247 2.302-1.871 3.894-1.871 1.064 0 2.008.282 2.833.843.825.561 1.468 1.355 1.925 2.378.458 1.026.686 2.153.686 3.386v.343zm17.389 7.966v-10.59c-.011-1.95-.437-3.41-1.283-4.387-.845-.974-2.132-1.46-3.864-1.46-1.093 0-2.094.26-2.998.781-.906.523-1.661 1.28-2.268 2.275l-.058-2.76h-1.702v16.141h1.776v-11.052c.408-1.175 1.037-2.106 1.887-2.798s1.826-1.037 2.93-1.037c1.324 0 2.286.354 2.886 1.06.602.705.908 1.78.917 3.221v10.606h1.777zm16.537 0v-10.59c-.011-1.95-.437-3.41-1.283-4.387-.845-.974-2.132-1.46-3.863-1.46-1.094 0-2.095.26-2.999.781-.906.523-1.661 1.28-2.267 2.275l-.059-2.76h-1.702v16.141h1.776v-11.052c.408-1.175 1.037-2.106 1.887-2.798s1.826-1.037 2.93-1.037c1.324 0 2.287.354 2.886 1.06.602.705.909 1.78.918 3.221v10.606h1.776zm6.83-15.4c-1.097.689-1.947 1.656-2.55 2.9-.601 1.243-.9 2.64-.9 4.191v.359c0 2.486.666 4.483 2.005 5.99 1.337 1.505 3.075 2.258 5.212 2.258 1.402 0 2.651-.338 3.745-1.015 1.093-.676 1.94-1.636 2.542-2.885.602-1.249.904-2.653.904-4.213v-.374c0-2.487-.667-4.482-2-5.99-1.331-1.506-3.072-2.259-5.22-2.259-1.393 0-2.638.345-3.738 1.037zm8.497 3.705c.457 1.026.685 2.153.685 3.386v.343c0 2.029-.498 3.663-1.5 4.9-.998 1.238-2.303 1.858-3.915 1.858-1.62 0-2.93-.62-3.929-1.858-1-1.237-1.499-2.822-1.499-4.75v-.328c0-2.018.5-3.652 1.506-4.901 1.003-1.247 2.301-1.871 3.893-1.871 1.064 0 2.008.282 2.834.843.825.561 1.467 1.355 1.925 2.378zm18.074 11.695v-10.59c-.011-1.95-.437-3.41-1.282-4.387-.846-.974-2.133-1.46-3.864-1.46-1.094 0-2.094.26-2.998.781-.907.523-1.662 1.28-2.268 2.275l-.059-2.76h-1.702v16.141h1.777v-11.052c.408-1.175 1.037-2.106 1.886-2.798s1.826-1.037 2.931-1.037c1.323 0 2.286.354 2.885 1.06.602.705.909 1.78.918 3.221v10.606h1.776zm12.883-2.029c-.766.548-1.772.821-3.014.821-1.332 0-2.403-.29-3.214-.872-.812-.582-1.251-1.396-1.321-2.44h-1.79c0 1.394.584 2.543 1.754 3.454 1.167.91 2.691 1.364 4.571 1.364 1.77 0 3.206-.406 4.304-1.222s1.648-1.905 1.648-3.266c0-.837-.19-1.547-.566-2.135-.379-.586-.958-1.089-1.738-1.506-.78-.417-1.955-.812-3.521-1.179s-2.645-.773-3.238-1.215c-.59-.442-.885-1.066-.885-1.873 0-.834.353-1.513 1.066-2.036.71-.52 1.652-.782 2.827-.782 1.201 0 2.2.313 2.989.94.791.627 1.186 1.411 1.186 2.356h1.792c0-1.432-.546-2.593-1.635-3.483-1.089-.89-2.533-1.335-4.332-1.335-1.662 0-3.023.415-4.087 1.245-1.067.831-1.596 1.882-1.596 3.156 0 .804.189 1.492.572 2.058.383.568.97 1.046 1.76 1.44.792.392 1.903.74 3.335 1.044 1.431.302 2.504.723 3.214 1.26s1.067 1.249 1.067 2.133c0 .836-.384 1.528-1.148 2.073zm16.463-12.105c.71-.52 1.652-.782 2.827-.782 1.201 0 2.2.313 2.989.94.791.627 1.186 1.411 1.186 2.356h1.792c0-1.432-.546-2.593-1.634-3.483-1.09-.89-2.534-1.335-4.333-1.335-1.661 0-3.023.415-4.087 1.245-1.066.831-1.596 1.882-1.596 3.156 0 .804.19 1.492.573 2.058.383.568.969 1.046 1.76 1.44.791.392 1.903.74 3.334 1.044 1.432.302 2.505.723 3.215 1.26s1.066 1.249 1.066 2.133c0 .836-.383 1.528-1.147 2.073-.767.548-1.772.821-3.014.821-1.333 0-2.403-.29-3.215-.872s-1.251-1.396-1.321-2.44h-1.79c0 1.394.584 2.543 1.754 3.454 1.168.91 2.692 1.364 4.572 1.364 1.77 0 3.205-.406 4.303-1.222 1.098-.816 1.648-1.905 1.648-3.266 0-.837-.19-1.547-.566-2.135-.379-.586-.958-1.089-1.738-1.506-.78-.417-1.954-.812-3.521-1.179s-2.644-.773-3.237-1.215c-.59-.442-.886-1.066-.886-1.873 0-.834.354-1.513 1.066-2.036zm18.573-2.304c-1.254 0-2.417.356-3.49 1.067-1.075.71-1.911 1.688-2.513 2.93-.602 1.244-.902 2.642-.902 4.193v.64c0 1.501.307 2.856.924 4.065.616 1.208 1.48 2.15 2.588 2.826 1.11.677 2.35 1.015 3.722 1.015 2.495 0 4.4-.95 5.712-2.85l-1.118-.85c-.597.767-1.26 1.324-1.99 1.671-.733.35-1.576.523-2.53.523-1.591 0-2.912-.609-3.96-1.828-1.049-1.218-1.574-2.741-1.574-4.572v-.342h11.515v-1c0-2.316-.573-4.145-1.722-5.481-1.148-1.337-2.703-2.007-4.662-2.007zm4.61 6.966h-9.682c.2-1.661.76-2.982 1.68-3.968s2.05-1.476 3.392-1.476c1.352 0 2.448.487 3.282 1.46.836.977 1.278 2.24 1.328 3.79v.194zm15.4-1.134v10.606h1.777v-10.59c-.011-1.95-.437-3.41-1.283-4.387-.845-.974-2.132-1.46-3.863-1.46-1.094 0-2.095.26-2.998.781-.907.523-1.662 1.28-2.268 2.275l-.059-2.76h-1.702v16.141h1.777v-11.052c.408-1.175 1.037-2.106 1.886-2.798a4.507 4.507 0 0 1 2.93-1.037c1.324 0 2.287.354 2.886 1.06.602.705.909 1.78.918 3.221zm17.032 4.28c-.38-.585-.958-1.088-1.738-1.505-.78-.417-1.955-.812-3.522-1.179-1.566-.367-2.644-.773-3.237-1.215-.59-.442-.886-1.066-.886-1.873 0-.834.354-1.513 1.067-2.036.71-.52 1.652-.782 2.827-.782 1.201 0 2.2.313 2.989.94.79.627 1.185 1.411 1.185 2.356h1.793c0-1.432-.546-2.593-1.635-3.483-1.089-.89-2.534-1.335-4.332-1.335-1.662 0-3.023.415-4.087 1.245-1.067.831-1.596 1.882-1.596 3.156 0 .804.189 1.492.572 2.058.383.568.97 1.046 1.76 1.44.792.392 1.903.74 3.335 1.044 1.431.302 2.504.723 3.214 1.26s1.067 1.249 1.067 2.133c0 .836-.384 1.528-1.148 2.073-.766.548-1.772.821-3.014.821-1.332 0-2.403-.29-3.214-.872-.812-.582-1.251-1.396-1.321-2.44h-1.79c0 1.394.584 2.543 1.754 3.454 1.167.91 2.691 1.364 4.571 1.364 1.77 0 3.206-.406 4.304-1.222 1.097-.816 1.647-1.905 1.647-3.266 0-.837-.189-1.547-.565-2.135zm18.933-12.253l-2.85-4.154h-2.148l3.373 4.163 1.625-.01zm2.432 16.327c.05.994.163 1.745.343 2.252h1.91v-.178c-.33-.775-.494-1.945-.494-3.505v-7.638c-.03-1.611-.564-2.867-1.603-3.766-1.04-.9-2.46-1.35-4.258-1.35-1.74 0-3.208.468-4.4 1.408-1.195.94-1.79 2.052-1.79 3.334l1.79.016c0-.895.407-1.661 1.221-2.297.816-.638 1.846-.956 3.089-.956 1.363 0 2.398.331 3.11.992.71.663 1.067 1.569 1.067 2.723v1.835h-3.237c-2.338 0-4.16.458-5.467 1.373s-1.961 2.157-1.961 3.728c0 1.324.478 2.417 1.438 3.283.96.863 2.216 1.296 3.767 1.296 1.084 0 2.11-.221 3.081-.663a6.215 6.215 0 0 0 2.394-1.887zm-7.885.075c-.67-.598-1.005-1.348-1.005-2.252 0-1.105.5-1.973 1.506-2.604 1.005-.631 2.396-.958 4.177-.976h3.192v3.548c-.429.965-1.112 1.736-2.052 2.313-.94.577-2.006.866-3.199.866-1.075 0-1.947-.298-2.619-.895zm26.368-.284l-4.953-13.68h-1.835l6.058 16.141h1.447l6.025-16.14h-1.835l-4.907 13.679zm15.406-13.977c-1.394 0-2.638.345-3.738 1.037-1.098.69-1.948 1.657-2.55 2.901-.601 1.243-.901 2.64-.901 4.191v.359c0 2.486.667 4.483 2.006 5.99 1.337 1.505 3.075 2.258 5.212 2.258 1.402 0 2.65-.338 3.744-1.015 1.093-.676 1.941-1.636 2.543-2.885.602-1.249.904-2.653.904-4.213v-.374c0-2.487-.667-4.482-2-5.99-1.332-1.506-3.072-2.259-5.22-2.259zm5.444 8.472c0 2.029-.499 3.663-1.5 4.9-.998 1.238-2.303 1.858-3.915 1.858-1.62 0-2.93-.62-3.93-1.858-1-1.237-1.498-2.822-1.498-4.75v-.328c0-2.018.5-3.652 1.505-4.901 1.004-1.247 2.302-1.871 3.894-1.871 1.064 0 2.008.282 2.833.843s1.468 1.355 1.925 2.378c.458 1.026.686 2.153.686 3.386v.343zm10.092 6.713c-.755 0-1.296-.219-1.619-.656-.322-.44-.484-1.105-.484-2.002V256.74h3.34v-1.463h-3.34v-4.131h-1.79v4.13h-2.97v1.464h2.97v10.768c0 1.384.277 2.43.836 3.14.557.713 1.445 1.067 2.67 1.067.804 0 1.442-.084 1.908-.25l-.074-1.45c-.667.1-1.15.149-1.447.149zm6.47-12.322l-.032-2.565h-1.745v16.14h1.777v-11.084c.326-1.181.876-2.085 1.647-2.707.771-.62 1.714-.931 2.827-.931.426 0 .83.034 1.208.103l.046-1.625c-.289-.128-.683-.194-1.18-.194-2.087 0-3.604.954-4.548 2.863zm13.895-2.863c-1.254 0-2.417.356-3.49 1.067-1.075.71-1.911 1.688-2.513 2.93-.602 1.244-.902 2.642-.902 4.193v.64c0 1.501.307 2.856.924 4.065.616 1.208 1.479 2.15 2.588 2.826 1.11.677 2.349 1.015 3.722 1.015 2.495 0 4.4-.95 5.712-2.85l-1.118-.85c-.597.767-1.26 1.324-1.99 1.671-.733.35-1.576.523-2.53.523-1.591 0-2.912-.609-3.96-1.828-1.049-1.218-1.574-2.741-1.574-4.572v-.342h11.515v-1c0-2.316-.573-4.145-1.722-5.481-1.148-1.337-2.703-2.007-4.662-2.007zm4.61 6.966h-9.682c.2-1.661.76-2.982 1.68-3.968s2.05-1.476 3.392-1.476c1.352 0 2.448.487 3.282 1.46.836.977 1.278 2.24 1.328 3.79v.194zm18.976-6.966c-2.207 0-3.893.861-5.056 2.581l-.09-2.283h-1.655v22.346h1.774v-8.235c1.174 1.551 2.865 2.327 5.072 2.327 1.869 0 3.361-.737 4.475-2.214 1.113-1.476 1.67-3.474 1.67-5.99v-.254c0-2.595-.55-4.624-1.648-6.084-1.098-1.463-2.612-2.194-4.542-2.194zm3.14 13.433c-.84 1.197-2.01 1.797-3.512 1.797-1.084 0-2.024-.243-2.82-.73-.796-.487-1.407-1.195-1.835-2.12v-7.74c.417-1.006 1.019-1.77 1.806-2.298.784-.527 1.724-.79 2.817-.79 1.513 0 2.692.597 3.537 1.79.846 1.194 1.267 2.82 1.267 4.877 0 2.277-.42 4.015-1.26 5.214zm8.535-10.57l-.032-2.565h-1.745v16.14h1.777v-11.084c.327-1.181.877-2.085 1.648-2.707.77-.62 1.713-.931 2.826-.931.426 0 .83.034 1.209.103l.045-1.625c-.289-.128-.683-.194-1.18-.194-2.087 0-3.604.954-4.548 2.863zm21.386 5.386c0-2.487-.668-4.482-2-5.99-1.332-1.506-3.072-2.259-5.22-2.259-1.394 0-2.638.345-3.738 1.037-1.098.69-1.948 1.657-2.55 2.901-.602 1.243-.901 2.64-.901 4.191v.359c0 2.486.667 4.483 2.006 5.99 1.337 1.505 3.075 2.258 5.212 2.258 1.402 0 2.65-.338 3.744-1.015 1.093-.676 1.94-1.636 2.543-2.885.602-1.249.904-2.653.904-4.213v-.374zm-1.777.223c0 2.029-.498 3.663-1.499 4.9-.998 1.238-2.304 1.858-3.915 1.858-1.621 0-2.93-.62-3.93-1.858-1-1.237-1.499-2.822-1.499-4.75v-.328c0-2.018.5-3.652 1.506-4.901 1.003-1.247 2.302-1.871 3.893-1.871 1.064 0 2.009.282 2.834.843.825.561 1.467 1.355 1.925 2.378.458 1.026.685 2.153.685 3.386v.343zm5.363 9.873c0 2.04-.883 3.062-2.653 3.062-.458 0-.906-.066-1.344-.197l-.029 1.466a4.487 4.487 0 0 0 1.567.282c1.39 0 2.446-.395 3.16-1.18.717-.786 1.076-1.925 1.076-3.415v-18.065h-1.777v18.047zm.895-23.91c-.376 0-.672.118-.886.35a1.21 1.21 0 0 0-.322.852c0 .336.108.617.322.844.214.228.51.34.886.34.39 0 .692-.112.91-.34.22-.227.33-.508.33-.844 0-.336-.11-.62-.33-.852-.218-.232-.52-.35-.91-.35zm11.6 5.565c-1.253 0-2.416.356-3.489 1.067-1.075.71-1.912 1.688-2.514 2.93-.601 1.244-.901 2.642-.901 4.193v.64c0 1.501.306 2.856.924 4.065.615 1.208 1.479 2.15 2.588 2.826 1.109.677 2.349 1.015 3.722 1.015 2.495 0 4.4-.95 5.712-2.85l-1.118-.85c-.598.767-1.26 1.324-1.99 1.671-.733.35-1.576.523-2.53.523-1.591 0-2.912-.609-3.96-1.828-1.049-1.218-1.574-2.741-1.574-4.572v-.342h11.515v-1c0-2.316-.573-4.145-1.723-5.481-1.147-1.337-2.702-2.007-4.661-2.007zm4.61 6.966h-9.682c.201-1.661.76-2.982 1.68-3.968.92-.985 2.051-1.476 3.393-1.476 1.352 0 2.448.487 3.282 1.46.836.977 1.278 2.24 1.328 3.79v.194zm11.333 8.07c-.668.1-1.15.149-1.448.149-.755 0-1.296-.219-1.618-.656-.323-.44-.485-1.105-.485-2.002V256.74h3.34v-1.463h-3.34v-4.131h-1.79v4.13h-2.969v1.464h2.97v10.768c0 1.384.277 2.43.836 3.14.556.713 1.445 1.067 2.669 1.067.804 0 1.442-.084 1.909-.25l-.074-1.45zm-243.042-36.918h-27.236v-51.275h-7.62v57.472h34.856v-6.197zm41.523 5.566c-.999-2.316-1.5-5.434-1.5-9.355V209.65c-.105-4.315-1.552-7.703-4.34-10.165-2.792-2.46-6.646-3.69-11.567-3.69-3.104 0-5.954.58-8.546 1.737-2.593 1.159-4.644 2.73-6.157 4.717-1.514 1.987-2.27 4.046-2.27 6.178h7.343c0-1.869.88-3.46 2.644-4.777 1.763-1.315 3.947-1.974 6.553-1.974 2.973 0 5.223.758 6.75 2.27 1.525 1.514 2.29 3.546 2.29 6.1v3.354H382.5c-6.132 0-10.888 1.23-14.27 3.691-3.38 2.46-5.071 5.914-5.071 10.362 0 3.657 1.348 6.677 4.044 9.058 2.698 2.382 6.152 3.572 10.362 3.572 4.71 0 8.763-1.762 12.158-5.288.263 2.157.606 3.657 1.025 4.5h7.658v-.632zm-8.8-11.329c-.923 1.895-2.41 3.434-4.462 4.618-2.053 1.185-4.224 1.776-6.512 1.776-2.397 0-4.355-.644-5.882-1.934-1.526-1.29-2.29-3.079-2.29-5.368 0-5.237 4.473-7.855 13.422-7.855h5.723v8.763zm80.188-10.263c-1.303-2.158-3.303-4.046-5.999-5.664-2.698-1.619-6.436-3.1-11.21-4.444-4.777-1.345-8.159-2.828-10.147-4.45-1.986-1.62-2.98-3.605-2.98-5.951 0-2.927 1.046-5.212 3.138-6.86s5.007-2.472 8.744-2.472c4.026 0 7.144.996 9.355 2.99 2.212 1.994 3.316 4.734 3.316 8.22h7.618c0-3.184-.848-6.119-2.546-8.802-1.697-2.685-4.091-4.79-7.184-6.317-3.093-1.525-6.612-2.289-10.559-2.289-5.789 0-10.493 1.481-14.111 4.44-3.618 2.962-5.429 6.705-5.429 11.232 0 4 1.482 7.36 4.441 10.084 2.962 2.724 7.692 5.02 14.19 6.888 5.186 1.5 8.765 3.02 10.738 4.559 1.975 1.54 2.96 3.717 2.96 6.533 0 2.817-1.064 5.04-3.197 6.671-2.132 1.632-5.198 2.447-9.197 2.447-4.29 0-7.717-1.006-10.282-3.02-2.567-2.012-3.85-4.756-3.85-8.23h-7.617c0 3.342.926 6.33 2.782 8.961 1.855 2.632 4.492 4.704 7.914 6.217 3.422 1.513 7.106 2.27 11.053 2.27 6.08 0 10.933-1.402 14.564-4.204 3.632-2.803 5.449-6.533 5.449-11.191 0-2.92-.651-5.46-1.954-7.618zm36.886 22.223h7.658v-.631c-1-2.316-1.5-5.434-1.5-9.355V209.65c-.105-4.315-1.553-7.703-4.341-10.165-2.791-2.46-6.646-3.69-11.567-3.69-3.104 0-5.953.58-8.546 1.737-2.592 1.159-4.643 2.73-6.156 4.717-1.515 1.987-2.27 4.046-2.27 6.178h7.342c0-1.869.881-3.46 2.644-4.777 1.763-1.315 3.947-1.974 6.553-1.974 2.974 0 5.223.758 6.75 2.27 1.526 1.514 2.29 3.546 2.29 6.1v3.354h-7.105c-6.132 0-10.888 1.23-14.27 3.691-3.381 2.46-5.072 5.914-5.072 10.362 0 3.657 1.348 6.677 4.044 9.058 2.699 2.382 6.152 3.572 10.363 3.572 4.71 0 8.762-1.762 12.157-5.288.264 2.157.607 3.657 1.026 4.5zm-1.143-11.96c-.922 1.895-2.41 3.434-4.461 4.618-2.054 1.185-4.225 1.776-6.513 1.776-2.396 0-4.355-.644-5.881-1.934s-2.29-3.079-2.29-5.368c0-5.237 4.472-7.855 13.421-7.855h5.724v8.763zm26.683-48.67h-7.301v60.63h7.301v-60.63zm19.617 0h-7.302v60.63h7.302v-60.63zm29.409 61.42c7.157 0 12.524-2.75 16.104-8.25l-4.46-3.474c-1.342 1.737-2.909 3.132-4.699 4.184-1.79 1.054-3.972 1.579-6.55 1.579-3.632 0-6.626-1.295-8.982-3.888-2.355-2.592-3.586-5.992-3.69-10.203h28.934v-3.04c0-6.815-1.54-12.053-4.62-15.71-3.076-3.658-7.393-5.487-12.946-5.487-3.394 0-6.546.941-9.454 2.822-2.908 1.883-5.171 4.487-6.79 7.816-1.618 3.33-2.427 7.112-2.427 11.349v1.341c0 6.37 1.816 11.454 5.448 15.257s8.34 5.703 14.132 5.703zm-8.33-35.072c2-2.144 4.473-3.217 7.421-3.217 3.053 0 5.474 1.02 7.264 3.059 1.79 2.04 2.788 4.914 3 8.625v.553h-21.395c.473-3.868 1.71-6.874 3.71-9.02zm-517.715-1.716c-.36-.434-.541-1.085-.541-1.953v-13.446h4.042v-2.861H54.66v-5.244H50.96v5.244h-3.943v2.861h3.943v13.429c0 1.84.419 3.262 1.26 4.262.84 1 2.087 1.5 3.742 1.5.922 0 1.869-.132 2.842-.397v-2.985c-.748.162-1.334.242-1.76.242-.868 0-1.481-.218-1.842-.652zm289.824 165.476c1.013-1.276 2.372-1.914 4.078-1.914 3.077 0 4.813 1.598 5.21 4.794h1.603c-.19-1.92-.868-3.424-2.036-4.51s-2.76-1.63-4.777-1.63c-1.429 0-2.694.352-3.794 1.055-1.097.7-1.94 1.7-2.527 2.991-.586 1.294-.879 2.775-.879 4.448v2.441c.01 1.648.307 3.111.893 4.39.586 1.28 1.416 2.27 2.489 2.966 1.073.699 2.306 1.048 3.703 1.048 1.998 0 3.598-.525 4.802-1.578 1.201-1.05 1.91-2.567 2.126-4.549h-1.603c-.198 1.594-.72 2.789-1.565 3.587s-2.098 1.194-3.76 1.194c-1.681 0-3.016-.647-4-1.938-.988-1.294-1.482-3.028-1.482-5.2v-2.305c0-2.25.507-4.015 1.52-5.29zm16.08 15.82h1.59v-8.803h8.777v-1.344h-8.778v-7.33h10.07v-1.344h-11.66v18.82zm19.15-18.82l-7.124 18.82h1.669l1.938-5.286h8.544l1.952 5.286h1.655l-7.124-18.82h-1.51zm-3.025 12.188l3.773-10.25 3.776 10.25h-7.55zm14.003-1.021h6.192v-1.306h-6.192v1.306zm13.08-8.167c1.011-1.276 2.37-1.914 4.077-1.914 3.077 0 4.813 1.598 5.21 4.794h1.602c-.189-1.92-.867-3.424-2.035-4.51s-2.76-1.63-4.777-1.63c-1.43 0-2.694.352-3.794 1.055-1.098.7-1.94 1.7-2.527 2.991-.586 1.294-.879 2.775-.879 4.448v2.441c.009 1.648.307 3.111.893 4.39.586 1.28 1.415 2.27 2.488 2.966 1.073.699 2.306 1.048 3.704 1.048 1.997 0 3.598-.525 4.802-1.578 1.201-1.05 1.909-2.567 2.125-4.549h-1.602c-.199 1.594-.72 2.789-1.565 3.587s-2.099 1.194-3.76 1.194c-1.682 0-3.016-.647-4.001-1.938-.988-1.294-1.481-3.028-1.481-5.2v-2.305c0-2.25.507-4.015 1.52-5.29zm16.079 15.82h1.589v-8.803h8.778v-1.344h-8.778v-7.33h10.07v-1.344h-11.66v18.82zm22.626-18.82h-6.411v18.82h1.589v-7.665h4.783c2.07 0 3.648-.48 4.739-1.442 1.088-.96 1.634-2.324 1.634-4.092 0-1.75-.566-3.122-1.7-4.123-1.134-.998-2.678-1.499-4.634-1.499zm3.53 8.71c-.812.734-1.986 1.1-3.53 1.1h-4.822v-8.467h4.925c1.484.018 2.626.412 3.434 1.185.804.774 1.208 1.81 1.208 3.113 0 1.312-.406 2.336-1.215 3.069zm-316.283 68.33c-.676-.363-1.693-.703-3.05-1.02-1.357-.321-2.292-.673-2.804-1.056-.514-.383-.769-.924-.769-1.62 0-.727.307-1.313.925-1.766.615-.453 1.431-.678 2.448-.678 1.043 0 1.907.27 2.592.814s1.028 1.224 1.028 2.042h1.55c0-1.24-.47-2.248-1.415-3.019-.942-.77-2.195-1.156-3.755-1.156-1.439 0-2.62.36-3.542 1.08s-1.382 1.63-1.382 2.734c0 .697.165 1.292.496 1.783.332.492.841.907 1.526 1.247s1.648.642 2.89.906c1.24.262 2.169.627 2.784 1.091.618.467.925 1.082.925 1.849 0 .723-.332 1.323-.994 1.796-.665.474-1.536.713-2.613.713-1.154 0-2.083-.253-2.784-.758-.703-.505-1.084-1.208-1.145-2.112h-1.551c0 1.206.507 2.202 1.52 2.991 1.011.79 2.332 1.184 3.96 1.184 1.535 0 2.777-.354 3.73-1.062.952-.705 1.428-1.65 1.428-2.829 0-.724-.163-1.341-.49-1.848-.329-.51-.83-.945-1.508-1.306zm13.122 2.92c-.595 1.853-2.013 2.78-4.251 2.78-2.155 0-3.233-1.33-3.233-3.995v-8.905h-1.537v9.098c.016 1.7.412 2.98 1.188 3.846.775.868 1.91 1.3 3.4 1.3 2.042 0 3.53-.675 4.46-2.03l.025 1.772h1.5v-13.986h-1.552v10.12zm10.13-10.379c-1.913 0-3.374.746-4.381 2.236l-.08-1.977h-1.433v19.362h1.537v-7.135c1.017 1.346 2.482 2.018 4.396 2.018 1.619 0 2.913-.64 3.878-1.92.964-1.281 1.447-3.01 1.447-5.19v-.221c0-2.247-.476-4.006-1.427-5.273-.954-1.267-2.266-1.9-3.936-1.9zm2.722 11.641c-.728 1.037-1.745 1.558-3.046 1.558-.937 0-1.754-.212-2.443-.634-.688-.424-1.22-1.034-1.59-1.837v-6.709c.363-.87.884-1.533 1.565-1.99.68-.456 1.494-.685 2.443-.685 1.31 0 2.331.518 3.064 1.55.733 1.035 1.098 2.444 1.098 4.227 0 1.975-.363 3.48-1.091 4.52zm9.876-11.641c-1.087 0-2.095.309-3.026.924s-1.656 1.463-2.177 2.54c-.52 1.078-.782 2.289-.782 3.632v.557c0 1.3.268 2.475.802 3.521.534 1.049 1.28 1.865 2.24 2.45.963.587 2.039.88 3.227.88 2.164 0 3.814-.823 4.95-2.47l-.97-.736c-.516.663-1.09 1.145-1.724 1.448-.633.302-1.364.453-2.191.453-1.38 0-2.522-.53-3.433-1.585-.909-1.055-1.364-2.376-1.364-3.96v-.298h9.98v-.868c0-2.007-.499-3.591-1.493-4.75-.996-1.159-2.342-1.738-4.04-1.738zm3.994 6.037h-8.39c.173-1.44.658-2.586 1.454-3.44.798-.852 1.778-1.278 2.942-1.278 1.172 0 2.119.421 2.844 1.267.724.843 1.107 1.938 1.15 3.282v.169zm-.401-11.492h-1.873l-2.471 3.6 1.36.007 2.984-3.607zm5.167 7.937l-.027-2.223h-1.51v13.986h1.537v-9.606c.284-1.023.76-1.805 1.429-2.344.667-.539 1.483-.81 2.448-.81.37 0 .72.032 1.048.09l.038-1.408c-.25-.11-.59-.167-1.02-.167-1.81 0-3.125.827-3.943 2.482zm7.013-7.304c-.33 0-.586.102-.776.302-.191.2-.286.447-.286.74 0 .29.095.534.286.73.19.198.446.298.776.298.326 0 .588-.1.782-.298a.998.998 0 0 0 .29-.73c0-.293-.096-.54-.29-.74s-.456-.302-.782-.302zm-.79 19.067h1.552v-13.986H181.1v13.986zm9.56-14.245c-1.086 0-2.093.309-3.024.924s-1.657 1.463-2.178 2.54c-.52 1.078-.782 2.289-.782 3.632v.557c0 1.3.268 2.475.802 3.521.535 1.049 1.28 1.865 2.241 2.45.963.587 2.038.88 3.226.88 2.164 0 3.814-.823 4.95-2.47l-.97-.736c-.515.663-1.09 1.145-1.724 1.448-.633.302-1.363.453-2.19.453-1.38 0-2.523-.53-3.434-1.585-.908-1.055-1.364-2.376-1.364-3.96v-.298h9.98v-.868c0-2.007-.498-3.591-1.492-4.75-.997-1.159-2.343-1.738-4.04-1.738zm3.995 6.037h-8.39c.174-1.44.658-2.586 1.454-3.44.798-.852 1.779-1.278 2.942-1.278 1.172 0 2.119.421 2.845 1.267.723.843 1.107 1.938 1.15 3.282v.169zm12.198 4.342c-.595 1.853-2.013 2.78-4.251 2.78-2.155 0-3.233-1.33-3.233-3.995v-8.905h-1.537v9.098c.015 1.7.412 2.98 1.188 3.846.775.868 1.909 1.3 3.4 1.3 2.041 0 3.53-.675 4.46-2.03l.025 1.772h1.5v-13.986h-1.552v10.12zm5.787-7.897l-.027-2.223h-1.51v13.986h1.537v-9.606c.284-1.023.76-1.805 1.429-2.344.667-.539 1.483-.81 2.448-.81.37 0 .72.032 1.048.09l.039-1.408c-.25-.11-.59-.167-1.021-.167-1.81 0-3.125.827-3.943 2.482zm-57.585-370.44h-1.873l-2.47 3.6 1.358.006 2.985-3.607zm-6.535 19.08c.963.585 2.038.877 3.226.877 2.164 0 3.814-.823 4.95-2.468l-.97-.737c-.515.663-1.09 1.146-1.724 1.448-.633.3-1.364.452-2.19.452-1.38 0-2.523-.528-3.434-1.584-.909-1.055-1.364-2.376-1.364-3.962v-.297h9.98v-.866c0-2.007-.499-3.59-1.493-4.75-.996-1.16-2.342-1.739-4.04-1.739a5.37 5.37 0 0 0-3.024.925c-.931.616-1.657 1.463-2.178 2.54-.52 1.077-.782 2.287-.782 3.632v.555c0 1.302.268 2.476.802 3.523.534 1.047 1.28 1.864 2.241 2.45zm0-11.028c.798-.853 1.779-1.279 2.942-1.279 1.172 0 2.119.422 2.845 1.267.723.844 1.106 1.939 1.15 3.282v.17h-8.391c.174-1.44.658-2.586 1.454-3.44zm15.333 11.905c.931 0 1.804-.198 2.618-.594a5.016 5.016 0 0 0 1.958-1.648 4.398 4.398 0 0 0 .803-2.333h-1.488c-.06.965-.453 1.752-1.181 2.36-.73.607-1.632.91-2.71.91-1.404 0-2.493-.5-3.264-1.5-.77-.999-1.156-2.39-1.156-4.175v-.452c0-1.818.385-3.232 1.156-4.24.771-1.008 1.855-1.512 3.25-1.512 1.096 0 2.003.336 2.724 1.008.72.672 1.114 1.555 1.181 2.65h1.488c-.07-1.49-.602-2.693-1.598-3.607-.994-.913-2.259-1.37-3.794-1.37-1.206 0-2.259.289-3.16.866-.9.578-1.592 1.397-2.075 2.456-.482 1.06-.723 2.28-.723 3.659v.465c0 2.154.536 3.87 1.61 5.144 1.072 1.276 2.526 1.913 4.361 1.913zm12.545 0c1.215 0 2.297-.292 3.246-.878.947-.586 1.682-1.42 2.203-2.502.523-1.081.782-2.298.782-3.65v-.324c0-2.154-.577-3.884-1.731-5.19-1.154-1.306-2.663-1.959-4.525-1.959-1.206 0-2.285.3-3.237.899-.953.598-1.69 1.437-2.211 2.513-.52 1.078-.782 2.288-.782 3.633v.31c0 2.155.58 3.885 1.738 5.19 1.158 1.306 2.664 1.958 4.517 1.958zm-4.704-7.316c0-1.75.435-3.165 1.305-4.246.87-1.082 1.995-1.622 3.374-1.622.922 0 1.74.244 2.455.73.717.487 1.272 1.174 1.668 2.062.397.887.596 1.865.596 2.934v.298c0 1.758-.433 3.172-1.299 4.245-.868 1.073-1.997 1.61-3.395 1.61-1.404 0-2.538-.537-3.406-1.61-.866-1.073-1.298-2.444-1.298-4.116v-.285zM186.23 67.24h-1.55v19.854h1.55V67.24zm5.068 19.234c.962.586 2.038.878 3.226.878 2.164 0 3.814-.823 4.95-2.468l-.97-.737c-.516.663-1.09 1.146-1.724 1.448-.633.3-1.364.452-2.19.452-1.38 0-2.523-.528-3.434-1.584-.909-1.055-1.364-2.376-1.364-3.962v-.297h9.98v-.866c0-2.007-.499-3.59-1.493-4.75-.996-1.16-2.342-1.739-4.04-1.739a5.37 5.37 0 0 0-3.025.925c-.93.616-1.656 1.463-2.177 2.54-.52 1.077-.782 2.287-.782 3.632v.555c0 1.302.268 2.476.802 3.523.534 1.047 1.28 1.864 2.24 2.45zm0-11.027c.798-.853 1.778-1.279 2.942-1.279 1.172 0 2.119.422 2.845 1.267.723.844 1.106 1.939 1.15 3.282v.17h-8.391c.173-1.44.658-2.586 1.454-3.44zm64.523-55.335c.931 0 1.804-.198 2.617-.594a5.016 5.016 0 0 0 1.96-1.647 4.398 4.398 0 0 0 .802-2.334h-1.488c-.06.965-.453 1.752-1.181 2.36-.73.607-1.632.91-2.71.91-1.404 0-2.493-.5-3.264-1.499s-1.156-2.392-1.156-4.176v-.452c0-1.818.385-3.231 1.156-4.24.771-1.008 1.855-1.512 3.25-1.512 1.096 0 2.002.336 2.724 1.008.719.672 1.113 1.556 1.181 2.65h1.488c-.07-1.49-.602-2.693-1.598-3.607-.995-.913-2.26-1.37-3.794-1.37-1.206 0-2.26.29-3.16.866-.9.579-1.592 1.397-2.075 2.456-.482 1.061-.723 2.28-.723 3.659v.465c0 2.154.536 3.87 1.61 5.145 1.072 1.276 2.526 1.912 4.361 1.912zm12.545 0c1.215 0 2.297-.292 3.246-.878.947-.586 1.682-1.42 2.203-2.502.523-1.08.782-2.298.782-3.65v-.324c0-2.154-.577-3.884-1.731-5.19-1.155-1.306-2.663-1.958-4.525-1.958-1.206 0-2.285.3-3.237.898-.953.599-1.69 1.437-2.211 2.514-.52 1.077-.782 2.288-.782 3.632v.31c0 2.155.579 3.885 1.738 5.19s2.664 1.958 4.517 1.958zm-4.705-7.316c0-1.75.436-3.165 1.306-4.246.87-1.082 1.995-1.622 3.374-1.622.922 0 1.74.244 2.455.73.717.488 1.272 1.174 1.668 2.062.397.887.595 1.866.595 2.934v.298c0 1.758-.432 3.173-1.298 4.246-.868 1.073-1.997 1.61-3.395 1.61-1.404 0-2.538-.537-3.406-1.61-.866-1.073-1.299-2.445-1.299-4.117v-.285zM278.2 0h-1.55v19.854h1.55V0zm4.61 0h-1.55v19.854h1.55V0zm9.134 3.754l-2.468-3.6h-1.862l2.921 3.607 1.41-.007zm-4.066 15.48c.962.586 2.037.878 3.225.878 2.165 0 3.815-.822 4.95-2.468l-.969-.737c-.516.664-1.09 1.146-1.724 1.448-.633.301-1.364.452-2.191.452-1.38 0-2.523-.527-3.433-1.583-.909-1.055-1.364-2.376-1.364-3.962v-.298h9.98V12.1c0-2.008-.499-3.591-1.493-4.751-.996-1.159-2.342-1.738-4.04-1.738-1.086 0-2.094.307-3.025.924s-1.657 1.463-2.177 2.54c-.521 1.077-.783 2.287-.783 3.632v.556c0 1.302.269 2.475.803 3.522.534 1.047 1.28 1.864 2.24 2.45zm0-11.026c.798-.854 1.778-1.28 2.941-1.28 1.173 0 2.12.422 2.845 1.267.724.845 1.107 1.939 1.15 3.283v.169h-8.39c.173-1.44.658-2.586 1.454-3.44zm14.92 11.904c1.896 0 3.34-.688 4.33-2.068v1.758c-.026 1.353-.4 2.411-1.124 3.174-.724.762-1.733 1.144-3.025 1.144-1.508 0-2.809-.672-3.904-2.016l-.866.93c.51.724 1.204 1.304 2.087 1.74a6.229 6.229 0 0 0 2.787.652c1.722 0 3.088-.527 4.098-1.577 1.007-1.052 1.512-2.478 1.512-4.279V5.868h-1.45l-.076 2.016c-.992-1.516-2.439-2.274-4.344-2.274-1.663 0-2.98.64-3.95 1.92s-1.453 3.013-1.453 5.202v.206c0 2.198.491 3.943 1.474 5.236s2.284 1.938 3.905 1.938zM300.07 8.486c.723-1.021 1.736-1.532 3.036-1.532.958 0 1.777.235 2.457.705.681.469 1.202 1.152 1.565 2.048v6.502c-.794 1.707-2.142 2.56-4.046 2.56-1.301 0-2.311-.515-3.026-1.545-.714-1.03-1.073-2.437-1.073-4.22 0-1.99.363-3.497 1.087-4.518zm13.519 10.748c.962.586 2.037.878 3.225.878 2.165 0 3.815-.822 4.95-2.468l-.969-.737c-.516.664-1.09 1.146-1.724 1.448-.634.301-1.364.452-2.191.452-1.38 0-2.523-.527-3.433-1.583-.909-1.055-1.364-2.376-1.364-3.962v-.298h9.98V12.1c0-2.008-.499-3.591-1.493-4.751-.996-1.159-2.342-1.738-4.04-1.738a5.37 5.37 0 0 0-3.025.924c-.93.616-1.657 1.463-2.177 2.54-.521 1.077-.783 2.287-.783 3.632v.556c0 1.302.269 2.475.803 3.522.534 1.047 1.28 1.864 2.24 2.45zm0-11.026c.798-.854 1.778-1.28 2.941-1.28 1.173 0 2.12.422 2.845 1.267.724.845 1.107 1.939 1.15 3.283v.169h-8.39c.173-1.44.658-2.586 1.454-3.44zM455.816 67.24h-1.551v19.854h1.55V67.24zm5.863 21.625c-.327.913-.726 1.557-1.194 1.933-.472.374-1.085.562-1.842.562l-.803-.078.014 1.28c.421.12.818.181 1.188.181 1.603 0 2.788-.849 3.555-2.547l.31-.724 5.972-16.364h-1.668l-4.085 11.762-4.341-11.762h-1.695l5.275 13.87-.686 1.887zm13.269-1.513c.93 0 1.803-.198 2.617-.594a5.016 5.016 0 0 0 1.959-1.648 4.398 4.398 0 0 0 .802-2.333h-1.487c-.061.965-.454 1.752-1.182 2.36-.73.607-1.632.91-2.71.91-1.404 0-2.492-.5-3.263-1.5-.771-.999-1.157-2.39-1.157-4.175v-.452c0-1.818.386-3.232 1.157-4.24.77-1.008 1.855-1.512 3.25-1.512 1.096 0 2.002.336 2.723 1.008.72.672 1.114 1.555 1.182 2.65h1.487c-.07-1.49-.601-2.693-1.598-3.607-.994-.913-2.259-1.37-3.794-1.37-1.206 0-2.258.289-3.16.866-.9.578-1.592 1.397-2.074 2.456-.483 1.06-.724 2.28-.724 3.659v.465c0 2.154.537 3.87 1.61 5.144 1.073 1.276 2.527 1.913 4.362 1.913zm9.335-.878c.962.586 2.037.878 3.225.878 2.165 0 3.815-.823 4.95-2.468l-.969-.737c-.516.663-1.09 1.146-1.724 1.448-.633.3-1.364.452-2.191.452-1.38 0-2.523-.528-3.433-1.584-.909-1.055-1.364-2.376-1.364-3.962v-.297h9.98v-.866c0-2.007-.499-3.59-1.493-4.75-.996-1.16-2.342-1.739-4.04-1.739-1.086 0-2.094.308-3.025.925s-1.657 1.463-2.177 2.54c-.521 1.077-.783 2.287-.783 3.632v.555c0 1.302.269 2.476.803 3.523.534 1.047 1.28 1.864 2.24 2.45zm0-11.027c.798-.853 1.778-1.279 2.941-1.279 1.173 0 2.12.422 2.845 1.267.724.844 1.107 1.939 1.15 3.282v.17h-8.39c.173-1.44.658-2.586 1.454-3.44zm6.535-8.053h-1.874l-2.47 3.6 1.36.007 2.984-3.607zm5.816 19.08c.962.586 2.038.878 3.225.878 2.165 0 3.815-.823 4.95-2.468l-.969-.737c-.516.663-1.09 1.146-1.724 1.448-.633.3-1.364.452-2.191.452-1.38 0-2.523-.528-3.433-1.584-.909-1.055-1.364-2.376-1.364-3.962v-.297h9.98v-.866c0-2.007-.499-3.59-1.493-4.75-.996-1.16-2.342-1.739-4.04-1.739a5.37 5.37 0 0 0-3.025.925c-.93.616-1.657 1.463-2.177 2.54-.521 1.077-.783 2.287-.783 3.632v.555c0 1.302.269 2.476.803 3.523.534 1.047 1.28 1.864 2.24 2.45zm0-11.027c.798-.853 1.778-1.279 2.941-1.279 1.173 0 2.12.422 2.845 1.267.724.844 1.107 1.939 1.15 3.282v.17h-8.39c.173-1.44.658-2.586 1.454-3.44z" fill="#524f52"/></svg>